<svg xmlns:xlink="http://www.w3.org/1999/xlink" xmlns="http://www.w3.org/2000/svg" width="12.724" height="14.178" viewBox="0 0 12.724 14.178">
    <g>
        <g>
            <path fill="#2f3249" d="M33.227 44.678H44.5a.727.727 0 0 0 .727-.727v-11.27a.727.727 0 0 0-.727-.727h-2V30.5h-1.457v1.454h-1.454V30.5h-1.454v1.454h-1.454V30.5h-1.455v1.454h-2a.727.727 0 0 0-.727.727v11.27a.727.727 0 0 0 .727.727zm.727-11.269h1.272v1.454h1.454v-1.455h1.454v1.454h1.454v-1.454h1.454v1.454H42.5v-1.454h1.272v9.815h-9.818z" transform="translate(-32.5 -30.5) translate(32.5 30.5) translate(-32.5 -30.5)"/>
        </g>
    </g>
</svg>