<?xml version="1.0"?>
<svg xmlns="http://www.w3.org/2000/svg" xmlns:xlink="http://www.w3.org/1999/xlink" version="1.1" id="Layer_1" x="0px" y="0px" viewBox="0 0 512.001 512.001" style="enable-background:new 0 0 512.001 512.001;" xml:space="preserve" width="512px" height="512px"><g><g>
	<g>
		<path d="M505.498,298.581l-80.214-79.897c-3.74-3.725-8.805-5.816-14.082-5.816H255.981h-155.21    c-5.279,0-10.343,2.091-14.084,5.816L5.874,299.181c-5.723,5.701-7.446,14.291-4.361,21.757    c3.084,7.466,10.365,12.337,18.445,12.337h60.859V477.03c0,11.021,8.935,19.956,19.956,19.956h155.21    c0.004,0,0.005-0.001,0.009-0.001c0.003,0,0.005,0.001,0.009,0.001h155.21c11.021,0,19.956-8.935,19.956-19.956V333.277h60.852    c0.009-0.001,0.017-0.001,0.027,0c11.021,0,19.956-8.935,19.956-19.956C512,307.483,509.493,302.232,505.498,298.581z     M68.269,293.365l40.745-40.584h98.654l-40.745,40.584H68.269z M236.025,457.073H120.727V333.275h54.44    c5.279,0,10.343-2.091,14.082-5.816l46.776-46.592V457.073z M391.253,457.074H275.955V280.887l46.76,46.573    c3.74,3.725,8.805,5.817,14.082,5.817h54.456V457.074z M345.04,293.365l-40.746-40.584h98.665l40.745,40.584H345.04z" data-original="#000000" class="active-path" data-old_color="#000000" fill="#8799A3"/>
	</g>
</g><g>
	<g>
		<path d="M296.678,15.015c-15.407,0-30.76,7.237-40.685,18.979c-9.935-11.741-25.296-18.979-40.69-18.979    c-27.974,0-49.692,21.711-49.692,49.692c-0.001,38.87,30.712,62.397,77.715,103.96l12.667,10.943l12.664-10.943    c46.995-41.563,77.709-69.58,77.709-103.96C346.365,36.727,324.654,15.015,296.678,15.015z" data-original="#000000" class="active-path" data-old_color="#000000" fill="#8799A3"/>
	</g>
</g></g> </svg>
