<?xml version="1.0" encoding="iso-8859-1"?>
<!-- Generator: Adobe Illustrator 19.0.0, SVG Export Plug-In . SVG Version: 6.00 Build 0)  -->
<svg version="1.1" id="Capa_1" xmlns="http://www.w3.org/2000/svg" xmlns:xlink="http://www.w3.org/1999/xlink" x="0px" y="0px"
	 viewBox="0 0 496.485 496.485" style="enable-background:new 0 0 496.485 496.485;" xml:space="preserve">
<polygon style="fill:#FFFFFF;" points="189.285,488.727 99.297,328.145 8.533,488.727 "/>
<path style="fill:#193651;" d="M189.285,496.485H8.533c-3.103,0-5.43-1.551-6.982-3.879s-1.552-5.43,0-7.758l89.988-160.582
	c3.103-4.655,10.861-4.655,13.188,0l89.988,160.582c1.552,2.327,1.552,5.43,0,7.758
	C194.715,494.933,192.388,496.485,189.285,496.485z M21.721,480.97h154.376l-76.8-136.533L21.721,480.97z"/>
<polygon style="fill:#CFD0D1;" points="83.782,401.842 46.545,468.558 152.048,468.558 114.036,401.842 "/>
<polygon style="fill:#FFFFFF;" points="488.727,488.727 398.739,328.145 307.976,488.727 "/>
<path style="fill:#193651;" d="M488.727,496.485H307.976c-3.103,0-5.43-1.551-6.982-3.879c-1.552-2.327-1.552-5.43,0-7.758
	l89.988-160.582c3.103-4.655,10.861-4.655,13.188,0l89.988,160.582c1.551,2.327,1.551,5.43,0,7.758
	C494.158,494.933,491.83,496.485,488.727,496.485z M321.164,480.97h154.376l-76.8-136.533L321.164,480.97z"/>
<polygon style="fill:#CFD0D1;" points="383.224,401.842 345.988,468.558 451.491,468.558 413.479,401.842 "/>
<polygon style="fill:#FFFFFF;" points="435.976,488.727 267.636,218.764 99.297,488.727 "/>
<path style="fill:#193651;" d="M435.976,496.485H99.297c-3.103,0-5.43-1.551-6.982-3.879s-1.552-5.43,0-7.758l168.339-269.964
	c3.103-4.655,10.085-4.655,13.188,0l168.339,269.964c1.552,2.327,1.552,5.43,0,7.758
	C441.406,494.933,438.303,496.485,435.976,496.485z M113.261,480.97h308.752L267.636,233.503L113.261,480.97z"/>
<polygon style="fill:#E1E6E9;" points="215.661,359.176 151.273,461.576 383.224,461.576 319.612,359.176 291.685,372.364 
	267.636,359.176 242.812,372.364 "/>
<path style="fill:#193651;" d="M267.636,226.521c-4.655,0-7.758-3.103-7.758-7.758V111.709c0-4.655,3.103-7.758,7.758-7.758
	c4.655,0,7.758,3.103,7.758,7.758v107.055C275.394,223.418,271.515,226.521,267.636,226.521z"/>
<polygon style="fill:#FFFFFF;" points="345.212,167.564 267.636,167.564 267.636,111.709 345.212,111.709 325.818,139.636 "/>
<path style="fill:#193651;" d="M345.988,175.321C345.212,175.321,345.212,175.321,345.988,175.321h-78.352
	c-4.655,0-7.758-3.103-7.758-7.758v-55.855c0-4.655,3.103-7.758,7.758-7.758h78.352c3.103,0,5.43,1.552,6.982,3.879
	c1.552,2.327,0.776,5.43-0.776,7.758l-16.291,23.273l15.515,22.497c1.552,1.552,2.327,3.103,2.327,5.43
	C353.745,172.218,349.867,175.321,345.988,175.321z M275.394,159.806h55.855l-10.861-15.515c-1.552-2.327-1.552-6.206,0-8.533
	l10.861-15.515h-55.855V159.806z"/>
<circle style="fill:#FDBF5E;" cx="105.503" cy="105.503" r="65.939"/>
<path style="fill:#193651;" d="M105.503,179.976c-41.115,0-73.697-33.358-73.697-73.697c0-41.115,33.358-73.697,73.697-73.697
	c41.115,0,73.697,33.358,73.697,73.697C179.976,146.618,146.618,179.976,105.503,179.976z M105.503,47.321
	c-32.582,0-58.182,26.376-58.182,58.182c0,32.582,26.376,58.182,58.182,58.182c32.582,0,58.182-26.376,58.182-58.182
	C164.461,73.697,138.085,47.321,105.503,47.321z"/>
<circle style="fill:#FFFFFF;" cx="105.503" cy="105.503" r="38.788"/>
<g>
	<rect y="97.745" style="fill:#193651;" width="15.515" height="15.515"/>
	<rect x="196.267" y="97.745" style="fill:#193651;" width="15.515" height="15.515"/>
	
		<rect x="13.292" y="147.343" transform="matrix(-0.8661 0.4999 -0.4999 -0.8661 116.8148 278.9091)" style="fill:#193651;" width="15.515" height="15.515"/>
	
		<rect x="182.988" y="48.913" transform="matrix(-0.8661 0.4999 -0.4999 -0.8661 384.2776 10.3998)" style="fill:#193651;" width="15.515" height="15.515"/>
	
		<rect x="48.961" y="183.225" transform="matrix(-0.4999 0.8661 -0.8661 -0.4999 250.4786 237.33)" style="fill:#193651;" width="15.515" height="15.515"/>
	
		<rect x="147.318" y="12.989" transform="matrix(-0.5001 0.866 -0.866 -0.5001 250.5938 -103.1706)" style="fill:#193651;" width="15.516" height="15.516"/>
	<rect x="97.745" y="196.267" style="fill:#193651;" width="15.515" height="15.515"/>
	<rect x="97.745" style="fill:#193651;" width="15.515" height="15.515"/>
	
		<rect x="147.359" y="182.98" transform="matrix(-0.8661 0.4999 -0.4999 -0.8661 384.81 278.3911)" style="fill:#193651;" width="15.515" height="15.515"/>
	
		<rect x="48.92" y="13.284" transform="matrix(-0.866 0.5001 -0.5001 -0.866 116.2826 10.9188)" style="fill:#193651;" width="15.516" height="15.516"/>
	
		<rect x="183.265" y="147.304" transform="matrix(-0.5 0.866 -0.866 -0.5 420.8222 67.1648)" style="fill:#193651;" width="15.515" height="15.515"/>
	
		<rect x="13" y="48.926" transform="matrix(-0.5 0.866 -0.866 -0.5 80.2254 67.0486)" style="fill:#193651;" width="15.515" height="15.515"/>
</g>
<g>
	<path style="fill:#2EA2DB;" d="M470.109,31.806c-3.879,0-7.758,0.776-11.636,3.103c-3.879-7.758-12.412-13.188-20.945-13.188
		c-4.655-12.412-17.067-20.945-31.03-20.945c-17.842,0-32.582,13.964-33.358,31.806c-0.776,0-0.776,0-1.552,0
		c-14.739,0-26.376,11.636-26.376,26.376s11.636,26.376,26.376,26.376h98.521c14.739,0,26.376-11.636,26.376-26.376
		C496.485,43.442,484.849,31.806,470.109,31.806z"/>
	<path style="fill:#2EA2DB;" d="M157.479,248.242c-3.103,0-6.206,0.776-9.309,2.327c-3.103-6.206-9.309-10.085-17.067-10.861
		c-3.879-10.085-13.188-17.067-24.824-17.067c-13.964,0-25.6,10.861-26.376,25.6h-0.776c-11.636,0-20.945,9.309-20.945,20.945
		c0,11.636,9.309,20.945,20.945,20.945h77.576c11.636,0,20.945-9.309,20.945-20.945
		C178.424,257.552,169.115,248.242,157.479,248.242z"/>
	<path style="fill:#2EA2DB;" d="M474.764,236.606c-3.103,0-6.206,0.776-9.309,2.327c-3.103-6.206-9.309-10.085-17.067-10.861
		c-3.879-10.085-13.188-17.067-24.824-17.067c-13.964,0-25.6,10.861-26.376,25.6h-0.776c-11.636,0-20.945,9.309-20.945,20.945
		c0,11.636,9.309,20.945,20.945,20.945h77.576c11.636,0,20.945-9.309,20.945-20.945C495.709,246.691,486.4,236.606,474.764,236.606z
		"/>
</g>
<g>
</g>
<g>
</g>
<g>
</g>
<g>
</g>
<g>
</g>
<g>
</g>
<g>
</g>
<g>
</g>
<g>
</g>
<g>
</g>
<g>
</g>
<g>
</g>
<g>
</g>
<g>
</g>
<g>
</g>
</svg>
