<?xml version="1.0"?>
<svg xmlns="http://www.w3.org/2000/svg" xmlns:xlink="http://www.w3.org/1999/xlink" version="1.1" id="Capa_1" x="0px" y="0px" viewBox="0 0 512 512" style="enable-background:new 0 0 512 512;" xml:space="preserve" width="512px" height="512px"><g><g>
	<g>
		<circle cx="359.975" cy="49.592" r="45.437" data-original="#000000" class="active-path" data-old_color="#000000" fill="#8799A3"/>
	</g>
</g><g>
	<g>
		<path d="M510.289,496.727c-4.709-13.66-74.357-215.721-76.732-222.612c1.858-1.656,3.445-3.675,4.626-6.036    c4.993-9.981,0.949-22.12-9.031-27.113l-69.617-34.825l-18.044-63.714l26.865,48.356l10.841,5.423l8.207-47.86    c2.865-16.708-8.357-32.575-25.065-35.44l-53.95-9.25c-16.708-2.865-32.575,8.357-35.44,25.065l-0.83,4.845    c12.509,4.281,22.392,15.024,24.91,28.958c3.7,20.477-9.9,40.075-30.376,43.775l-7.23,1.306l-13.09,76.332    c0,0,0.221,0.716-3.374,86.617l-23.361,56.702l7.187,52.794c1.581,11.611-1.385,22.794-7.532,31.751    c11.198,1.417,22.126-4.798,26.51-15.439l45.601-110.682c1.122-2.724,1.76-5.623,1.883-8.566    c3.799-90.772,3.505-83.529,3.52-84.531l5.752,0.986l27.951,76.206l5.101,118.054c0.603,13.96,12.416,24.751,26.326,24.146    c13.938-0.602,24.747-12.389,24.146-26.326l-5.271-121.977c-0.112-2.599-0.625-5.166-1.522-7.608l-19.31-52.649l0.848,0.145    l5.028-29.32c-13.368-6.688-33.056-16.536-46.473-23.248c-8.07-4.036-12.878-12.031-13.276-20.446l-3.461-77.112l20.474,72.293    c1.548,5.464,5.323,10.025,10.402,12.566l77.038,38.537c5.088,14.76,75.133,217.975,78.341,227.28    c2.043,5.925,8.499,9.059,14.407,7.022C509.186,509.096,512.33,502.646,510.289,496.727z" data-original="#000000" class="active-path" data-old_color="#000000" fill="#8799A3"/>
	</g>
</g><g>
	<g>
		<path d="M279.725,165.648c-1.975-10.921-12.43-18.172-23.347-16.2l-76.171,13.763l-52.332-39.965l37.477,16.784v-3.87    c0-16.856-13.665-30.521-30.521-30.521H80.402c-16.856,0-30.521,13.665-30.521,30.521v156.598h0.051l-3.284,78.449L2.989,477.172    c-5.284,12.826,0.829,27.507,13.655,32.791c12.823,5.285,27.506-0.828,32.791-13.655L94.78,386.25    c1.115-2.709,1.75-5.591,1.872-8.518c3.752-89.65,3.528-83.657,3.498-84.974h11.786l28.896,78.781l16.144,118.589    c1.876,13.774,14.566,23.371,28.277,21.5c13.745-1.872,23.371-14.53,21.5-28.276l-16.512-121.291    c-0.245-1.796-0.683-3.559-1.307-5.261l-23.581-64.293c0-7.856,0-61.925,0-69.865c-5.175-1.191-9.813-4.08-13.163-8.139    l-48.707-59.32l59.379,45.348c4.505,3.44,10.237,4.805,15.77,3.803l84.892-15.34C274.445,187.021,281.698,176.569,279.725,165.648    z" data-original="#000000" class="active-path" data-old_color="#000000" fill="#8799A3"/>
	</g>
</g><g>
	<g>
		<circle cx="114.883" cy="45.177" r="45.177" data-original="#000000" class="active-path" data-old_color="#000000" fill="#8799A3"/>
	</g>
</g></g> </svg>
