<?xml version="1.0"?>
<svg xmlns="http://www.w3.org/2000/svg" xmlns:xlink="http://www.w3.org/1999/xlink" version="1.1" id="Capa_1" x="0px" y="0px" viewBox="0 0 297 297" style="enable-background:new 0 0 297 297;" xml:space="preserve" width="512px" height="512px"><g><path d="M259.165,49.594C232.216,19.473,192.007,0,148.5,0C104.994,0,64.784,19.472,37.835,49.592C14.579,75.584,0,110.964,0,148.5  c0,37.535,14.579,72.916,37.835,98.908C64.784,277.528,104.994,297,148.5,297c43.542,0,83.682-19.439,110.655-49.582  C282.44,221.395,297,186.082,297,148.5C297,110.964,282.419,75.585,259.165,49.594z M275.653,138.042h-15.016  c0.182-1.843,0.283-3.673,0.283-5.486c0-23.729-13.397-44.354-32.971-54.653c7.354-2.429,14.312-5.194,20.756-8.287  C263.816,88.768,273.558,112.34,275.653,138.042z M158.958,126.939c2.725-20.24,19.94-35.895,40.719-35.895  c22.671,0,41.113,18.622,41.113,41.511c0,37.726-62.438,84.163-92.287,102.622c-29.854-18.44-92.293-64.842-92.293-102.622  c0-22.889,18.445-41.511,41.118-41.511c20.75,0,37.949,15.605,40.714,35.801l0.778,8.421c1.186,4.239,5.067,7.354,9.686,7.354  c4.641,0,8.538-3.146,9.702-7.418L158.958,126.939z M233.577,53.51c-6.477,2.743-13.465,5.15-20.847,7.203  c-1.933-5.045-4.026-9.896-6.308-14.481c-2.835-5.698-5.881-10.903-9.108-15.601C210.7,36.194,222.94,43.974,233.577,53.51z   M158.958,23.225c10.427,4.577,20.523,15.808,28.739,32.323c1.558,3.131,3.024,6.399,4.401,9.788  c-10.617,1.849-21.751,3.03-33.141,3.479V23.225z M109.303,55.548c8.217-16.516,18.313-27.746,28.739-32.323v45.591  c-11.39-0.449-22.524-1.631-33.141-3.479C106.278,61.947,107.745,58.679,109.303,55.548z M99.686,30.63  c-3.228,4.698-6.273,9.903-9.108,15.601c-2.281,4.585-4.375,9.437-6.308,14.481c-7.382-2.053-14.37-4.46-20.847-7.203  C74.06,43.974,86.3,36.194,99.686,30.63z M48.294,69.615c6.444,3.093,13.403,5.859,20.758,8.288  c-19.574,10.3-32.972,30.925-32.972,54.652c0,1.813,0.101,3.644,0.284,5.486H21.347C23.441,112.34,33.184,88.768,48.294,69.615z   M21.347,158.958h20.729c6.168,14.099,17.083,28.899,32.692,44.3c0.914,4.475,1.929,8.868,3.071,13.146  c-10.642,3.001-20.584,6.681-29.546,10.981C33.184,208.232,23.441,184.66,21.347,158.958z M63.423,243.49  c6.476-2.743,13.465-5.15,20.847-7.203c1.933,5.045,4.026,9.896,6.308,14.482c2.835,5.698,5.881,10.903,9.108,15.601  C86.3,260.806,74.06,253.026,63.423,243.49z M109.303,241.452c-1.558-3.131-3.024-6.399-4.401-9.788  c0.851-0.148,1.722-0.27,2.58-0.409c12.875,9.74,24.199,17.112,30.561,21.085v21.436  C127.615,269.198,117.52,257.968,109.303,241.452z M187.697,241.452c-8.217,16.516-18.313,27.746-28.739,32.323V252.34  c6.358-3.971,17.688-11.339,30.568-21.084c0.855,0.14,1.724,0.26,2.572,0.408C190.722,235.053,189.255,238.321,187.697,241.452z   M197.314,266.37c3.228-4.698,6.273-9.903,9.108-15.601c2.281-4.585,4.375-9.437,6.308-14.482c7.382,2.053,14.37,4.46,20.847,7.203  C222.94,253.026,210.7,260.806,197.314,266.37z M248.706,227.385c-8.962-4.301-18.904-7.98-29.546-10.981  c1.143-4.274,2.156-8.667,3.069-13.139c15.611-15.403,26.527-30.206,32.695-44.307h20.728  C273.558,184.66,263.816,208.232,248.706,227.385z" data-original="#000000" class="active-path" data-old_color="#000000" fill="#8799A3"/></g> </svg>
